<svg xmlns="http://www.w3.org/2000/svg" xmlns:xlink="http://www.w3.org/1999/xlink" width="20" height="20" viewBox="0 0 20 20">
    <defs>
        <path id="a" d="M10 4.182a5.818 5.818 0 1 0 0 11.636 5.818 5.818 0 0 0 0-11.636zm0 10.182a4.364 4.364 0 1 1 0-8.728 4.364 4.364 0 0 1 0 8.728zm.727-11.637H9.273V.545h1.454v2.182zm5.448.073L17.2 3.825l-1.542 1.542-1.025-1.025L16.175 2.8zm3.28 6.473v1.454h-2.182V9.273h2.182zm-3.797 5.352l1.542 1.542-1.025 1.033-1.542-1.542 1.025-1.033zm-6.385 2.648h1.454v2.182H9.273v-2.182zm-4.931-2.648l1.025 1.026L3.825 17.2 2.8 16.175l1.542-1.55zM.545 9.273h2.182v1.454H.545V9.273zm3.797-3.898L2.8 3.825 3.825 2.8l1.542 1.542-1.025 1.033z"/>
    </defs>
    <g fill="none" fill-rule="evenodd" transform="translate(-10 -10)">
        <circle cx="20" cy="20" r="20" fill="#F3F3F3"/>
        <g transform="translate(10 10)">
            <mask id="b" fill="#fff">
                <use xlink:href="#a"/>
            </mask>
            <use fill="#242424" fill-rule="nonzero" xlink:href="#a"/>
            <g fill="#272727" mask="url(#b)">
                <path d="M-6.667-6.667h33v33h-33z"/>
            </g>
        </g>
    </g>
</svg>
